# xmcd
# Track frame offsets:
# 150
# 15417
# 32090
# 48829
# 65518
#
# Disc length: 1096 seconds
# Revision: 0
# Processed by: cddbd v1.5PL3 Copyright (c) Steve Scherf et al.
# Submitted via: VisiTrax 2.9.9.209 - For more info visit www.synapsa.com
#
DISCID=34044605
DTITLE=Taylor Brooke Bellow - Taylor Brooke Bellow - 2002
DYEAR=2002
DGENRE=
TTITLE0=It's got love written all over it
TTITLE1=You won't let me love you
TTITLE2=There's nothing like new love
TTITLE3=That's life
TTITLE4=All that I want
EXTD=
EXTT0=
EXTT1=
EXTT2=
EXTT3=
EXTT4=
PLAYORDER=
